<svg width="60" height="16" viewBox="0 0 60 16" fill="none" xmlns="http://www.w3.org/2000/svg">
<path fill-rule="evenodd" clip-rule="evenodd" d="M18.3088 0.55957C15.5807 0.55957 13.3688 2.70342 13.3688 5.34814C13.3688 7.92637 15.5253 10.0165 18.1852 10.0165C18.2997 10.0165 18.4097 10.0021 18.5197 9.98764C18.5724 9.98073 18.6251 9.97381 18.6783 9.96847L14.9751 15.1993H17.4012L22.4563 7.88935C22.973 7.14237 23.2492 6.25583 23.2492 5.34814C23.2492 2.70342 21.0375 0.55957 18.3088 0.55957ZM18.3088 8.30514C16.6757 8.30514 15.3518 6.98118 15.3518 5.34814C15.3518 3.71478 16.6757 2.39081 18.3088 2.39081C19.9418 2.39081 21.2658 3.71478 21.2658 5.34814C21.2658 6.98118 19.9418 8.30514 18.3088 8.30514Z" fill="black"/>
<path d="M39.3951 4.05236C38.3724 3.02899 36.9648 2.39064 35.4071 2.39064C32.2922 2.39064 29.7579 4.92496 29.7579 8.03979C29.7579 11.1546 32.2922 13.6888 35.4071 13.6888C36.9648 13.6888 38.3724 13.0506 39.3951 12.0271L40.7388 13.3707C39.362 14.6942 37.4839 15.5183 35.4071 15.5183C31.1984 15.5183 27.7743 12.1633 27.7743 8.03979C27.7743 3.91633 31.1984 0.561317 35.4071 0.561317C37.4839 0.561317 39.362 1.38521 40.7388 2.70885L39.3951 4.05236Z" fill="black"/>
<path d="M52.6666 7.91318L57.6453 0.879978H59.8262V15.1995H57.8408V3.90107L52.6666 11.3855L47.492 3.90107V15.1995H45.5068V0.879978H47.6878L52.6666 7.91318Z" fill="black"/>
<path d="M4.5399 0.559586C7.0473 0.559586 9.07995 2.52526 9.07995 4.94999C9.07995 6.0115 8.67185 7.03231 7.94025 7.80124L2.64392 13.3682H9.07995V15.1993H0V13.3682L6.43603 6.60338C6.86032 6.15747 7.09681 5.56558 7.09681 4.94999C7.09681 3.53662 5.95214 2.39083 4.5399 2.39083C3.12781 2.39083 1.98298 3.53662 1.98298 4.94999H0C0 2.52526 2.03249 0.559586 4.5399 0.559586Z" fill="black"/>
</svg>
